<svg xmlns="http://www.w3.org/2000/svg" xmlns:xlink="http://www.w3.org/1999/xlink" version="1.1"
	x="0px" y="0px" viewBox="-429 231 100 125" style="enable-background:new -429 231 100 100;"
	xml:space="preserve"><style type="text/css">
	.st0{fill:white;stroke:#000000;stroke-width:2;stroke-miterlimit:10;}
</style><path class="st0" d="M-339.3,282.1c0,21.9-17.9,39.8-39.8,39.8c-22.2,0-40.1-17.9-40.1-39.8  c0-22.2,17.9-40.1,40.1-40.1C-357.2,242-339.3,259.9-339.3,282.1L-339.3,282.1z M-362.6,276.2c0-9.1-7.5-16.6-16.6-16.6  c-9.4,0-16.8,7.5-16.8,16.6c0,9.4,7.5,16.8,16.8,16.8C-370.1,293-362.6,285.6-362.6,276.2L-362.6,276.2z M-353.2,312  c-5.1-10.2-15-16.8-26.7-16.8c-11.5,0-21.1,6.4-26.5,15.8c7.2,6.7,16.8,10.7,27.3,10.7C-369.3,321.7-360.5,317.9-353.2,312  L-353.2,312z"/><text x="-429" y="346" fill="#000000" font-size="5px" font-weight="bold" font-family="'Helvetica Neue', Helvetica, Arial-Unicode, Arial, Sans-serif">Created by Akriti Bhusal</text><text x="-429" y="351" fill="#000000" font-size="5px" font-weight="bold" font-family="'Helvetica Neue', Helvetica, Arial-Unicode, Arial, Sans-serif">from the Noun Project</text></svg>